<svg width="282" height="108" viewBox="0 0 282 108" fill="none" xmlns="http://www.w3.org/2000/svg">
<g style="mix-blend-mode:screen">
<rect x="0.503906" width="129" height="108"/>
</g>
<path d="M137.744 47.4C129.544 47.4 124.504 41.96 124.504 33.6C124.504 25.24 130.184 19.8 139.384 19.8C147.784 19.8 153.104 23.72 153.104 30.16V30.48H146.424V30.16C146.424 27.04 144.384 25.56 139.224 25.56C133.144 25.56 130.864 27.64 130.864 33.6C130.864 39.56 133.064 41.64 138.944 41.64C145.104 41.64 146.984 40.68 147.144 37.28H138.064V32.84H153.144V47H147.584V41.24H147.264C146.344 44.76 143.544 47.4 137.744 47.4ZM161.68 47H155.68V20.2H170.48C177.08 20.2 180.84 23.12 180.84 28.24C180.84 32.6 178.32 35.2 173.28 35.68V36C175.68 36.64 176.6 37.92 177.6 39.8L181.48 47H174.52L170.84 40.04C169.76 37.96 168.76 37.28 165.64 37.28H161.68V47ZM161.68 25.6V32.76H170.44C173.28 32.76 174.56 31.96 174.56 29.16C174.56 26.52 173.28 25.6 170.44 25.6H161.68ZM187.896 47H181.176L192.896 20.2H201.456L213.256 47H206.376L203.856 41.08H190.456L187.896 47ZM195.296 29.84L192.776 35.68H201.536L199.016 29.84L197.376 25.68H196.936L195.296 29.84ZM220.255 47H214.255V20.2H222.375L228.655 33.4L231.175 39.68H231.615L234.055 33.4L240.135 20.2H248.295V47H242.295V33.4L242.495 29.2H242.055L240.495 33.4L234.895 45.4H227.615L222.015 33.4L220.455 29.2H220.015L220.255 33.4V47ZM255.963 47H249.243L260.963 20.2H269.523L281.323 47H274.443L271.923 41.08H258.523L255.963 47ZM263.363 29.84L260.843 35.68H269.603L267.083 29.84L265.443 25.68H265.003L263.363 29.84ZM147.064 87H125.104V60.2H131.104V81.6H147.064V87ZM153.999 87H147.279L158.999 60.2H167.559L179.359 87H172.479L169.959 81.08H156.559L153.999 87ZM161.399 69.84L158.879 75.68H167.639L165.119 69.84L163.479 65.68H163.039L161.399 69.84ZM192.999 87.4C184.799 87.4 179.759 81.96 179.759 73.6C179.759 65.24 185.439 59.8 194.639 59.8C203.039 59.8 208.359 63.72 208.359 70.16V70.48H201.679V70.16C201.679 67.04 199.639 65.56 194.479 65.56C188.399 65.56 186.119 67.64 186.119 73.6C186.119 79.56 188.319 81.64 194.199 81.64C200.359 81.64 202.239 80.68 202.399 77.28H193.319V72.84H208.399V87H202.839V81.24H202.519C201.599 84.76 198.799 87.4 192.999 87.4ZM224.735 87.4C215.855 87.4 210.335 81.96 210.335 73.6C210.335 65.24 215.855 59.8 224.735 59.8C233.815 59.8 239.295 65.24 239.295 73.6C239.295 81.96 233.815 87.4 224.735 87.4ZM224.735 81.64C230.615 81.64 232.895 79.56 232.895 73.6C232.895 67.64 230.615 65.56 224.735 65.56C218.855 65.56 216.695 67.64 216.695 73.6C216.695 79.56 218.855 81.64 224.735 81.64ZM253.672 87.4C245.552 87.4 240.992 84.2 240.992 77.96V77.72H246.992V78.44C246.992 80.92 248.232 81.92 253.672 81.92C258.472 81.92 259.592 81.2 259.592 79.4C259.592 77.76 258.672 77.16 255.912 76.68L248.392 75.6C243.592 74.84 240.752 72.44 240.752 68.08C240.752 64.04 244.032 59.8 253.032 59.8C261.272 59.8 265.112 63.6 265.112 69.24V69.48H259.072V68.92C259.072 66.36 257.752 65.28 252.432 65.28C248.112 65.28 246.792 66.12 246.792 67.84C246.792 69.4 247.672 69.96 249.912 70.36L257.432 71.56C263.432 72.52 265.592 75.44 265.592 79.12C265.592 83.48 262.192 87.4 253.672 87.4Z" fill="white"/>
</svg>
